<?xml version="1.0" encoding="utf-8"?>
<!-- Generator: Adobe Illustrator 27.3.1, SVG Export Plug-In . SVG Version: 6.00 Build 0)  -->
<svg version="1.1" id="Layer_1" xmlns="http://www.w3.org/2000/svg" xmlns:xlink="http://www.w3.org/1999/xlink" x="0px" y="0px"
	 viewBox="0 0 170.96 170.96" style="enable-background:new 0 0 170.96 170.96;" xml:space="preserve">
<style type="text/css">
	.st0{fill:none;stroke:#368532;stroke-width:4;stroke-miterlimit:10;}
	.st1{fill:#49B240;}
	.st2{fill:none;stroke:#050000;stroke-width:2;stroke-linecap:round;stroke-linejoin:round;stroke-miterlimit:10;}
	.st3{fill:none;stroke:#050000;stroke-width:2;stroke-miterlimit:10;}
</style>
<g>
	<circle class="st0" cx="85.48" cy="85.48" r="83.48"/>
	<circle class="st1" cx="85.48" cy="94.39" r="33.67"/>
	<line class="st2" x1="80.13" y1="55.37" x2="69.57" y2="47.41"/>
	<line class="st2" x1="86.78" y1="47.41" x2="85.48" y2="33.58"/>
	<line class="st2" x1="96.04" y1="53.28" x2="104.39" y2="42.58"/>
	<polyline class="st3" points="52.87,107.8 60.7,101.28 89.91,131.15 83.52,138.32 	"/>
	<line class="st3" x1="81.29" y1="131.41" x2="74.68" y2="124.71"/>
	<path class="st3" d="M63.86,104.51l2.51-1.99l0.39-10.5l11.77-23.94c0.98-1.94,3.42-2.61,5.25-1.44l0,0
		c1.14,0.73,1.86,2.41,1.6,3.73c-2.11,10.88-2.06,12.79-1.66,13.24c0.69,0.77,2.01-0.42,2.91-1.3l24.8-24.23
		c1.53-1.5,3.99-1.49,5.51,0.03v0c1.52,1.52,1.53,3.99,0.01,5.53L95.33,85.48"/>
	<path class="st3" d="M85.87,127.02l2.51-2.31l6.65-2.25l20.18-19.68l0,0c1.62-1.62,1.44-4.28-0.37-5.68l-0.92-0.71
		c-1.49-1.14-3.59-1.03-4.94,0.28l-3.26,3.15"/>
	<path class="st3" d="M100.93,92.47l6.78-7.05c1.71-1.78,1.62-4.63-0.22-6.29l0,0c-1.74-1.57-4.41-1.5-6.06,0.16l-5.05,5.1"/>
	<path class="st3" d="M107.87,97.87l3.82-3.84c1.69-1.79,1.59-4.62-0.22-6.28v0c-1.77-1.62-4.5-1.54-6.17,0.19l-3.77,3.92"/>
</g>
</svg>
